#!OML:ASF F:\VICON\USERDATA\INSTALL\Justin_Nancy\Justin_Nancy.ASF
:FULLY-SPECIFIED
:DEGREES
205
root 0.318906 17.2072 22.9557 -3.53903 1.17084 0.49743
lowerback 4.22509 0.297368 -0.291688
upperback -0.081392 0.432767 2.01573
thorax -2.47076 0.231694 2.20986
lowerneck -13.2481 -3.9054 -11.1127
upperneck 23.6007 -4.70633 7.34033
head 10.1427 -2.35141 3.87638
rclavicle 6.70898e-015 1.98785e-014
rhumerus -33.4025 -12.8832 -76.5018
rradius 62.7069
rwrist -6.17361
rhand -17.823 18.2286
rfingers 7.12502
rthumb 8.44119 -11.5827
lclavicle 6.70898e-015 1.98785e-014
lhumerus -39.5107 12.9176 83.1466
lradius 21.5786
lwrist -12.3952
lhand -17.2298 21.5773
lfingers 7.12502
lthumb 9.01362 51.3647
rfemur -9.40133 5.72686 24.1437
rtibia 35.2018
rfoot -16.5579 -10.9962
rtoes 1.99694
lfemur -12.5859 -4.17558 -22.3895
ltibia 35.3663
lfoot -15.3212 -0.962382
ltoes 2.49176
206
root 0.32216 17.2064 22.9886 -3.32802 1.40015 0.603272
lowerback 4.07134 0.276122 -0.372865
upperback -0.235689 0.40005 1.95074
thorax -2.54195 0.217379 2.19097
lowerneck -13.3358 -4.02807 -11.1839
upperneck 23.63 -4.85958 7.3589
head 10.1897 -2.42516 3.87439
rclavicle 4.00054e-015 -3.33958e-014
rhumerus -33.792 -12.5522 -76.3981
rradius 62.35
rwrist -6.09492
rhand -17.2835 18.3189
rfingers 7.12502
rthumb 8.96178 -11.4708
lclavicle 4.00054e-015 -3.33958e-014
lhumerus -39.6043 13.0294 83.0181
lradius 22.1009
lwrist -11.758
lhand -17.1905 21.7542
lfingers 7.12502
lthumb 9.05152 51.54
rfemur -9.37344 5.74419 24.0054
rtibia 35.0761
rfoot -16.6996 -11.2196
rtoes 2.32991
lfemur -12.6753 -4.07797 -22.4978
ltibia 35.2943
lfoot -15.4227 -1.25925
ltoes 2.55233
207
root 0.326136 17.2082 23.0228 -3.15339 1.48877 0.678862
lowerback 4.00005 0.282851 -0.379478
upperback -0.389312 0.408176 1.86252
thorax -2.65972 0.222543 2.10342
lowerneck -13.264 -4.06426 -11.1216
upperneck 23.4867 -4.91942 7.32621
head 10.1281 -2.45068 3.84138
rclavicle -8.79622e-015 -1.74931e-014
rhumerus -34.146 -12.2713 -76.3551
rradius 61.8631
rwrist -5.82028
rhand -17.124 18.4327
rfingers 7.12502
rthumb 9.11573 -11.3503
lclavicle -8.79622e-015 -1.74931e-014
lhumerus -39.7365 12.8734 82.9663
lradius 22.6512
lwrist -10.6667
lhand -17.5926 21.8864
lfingers 7.12502
lthumb 8.66348 51.6886
rfemur -9.36516 5.74056 23.8949
rtibia 34.9719
rfoot -16.7869 -11.2539
rtoes 2.06972
lfemur -12.6948 -3.98027 -22.5855
ltibia 35.1989
lfoot -15.5312 -1.41729
ltoes 2.3687
208
root 0.333994 17.2092 23.0622 -3.00038 1.5903 0.85219
lowerback 3.88378 0.280074 -0.43974
upperback -0.509379 0.399739 1.75861
thorax -2.71725 0.219502 2.03101
lowerneck -13.5317 -4.13989 -10.9243
upperneck 23.5744 -4.98216 7.06743
head 10.2064 -2.48654 3.70477
rclavicle 1.08586e-014 -1.35174e-014
rhumerus -34.6213 -11.9873 -76.3173
rradius 61.4302
rwrist -5.4668
rhand -16.7475 18.6513
rfingers 7.12502
rthumb 9.47902 -11.1155
lclavicle 1.08586e-014 -1.35174e-014
lhumerus -39.839 12.9877 82.804
lradius 23.1065
lwrist -9.97936
lhand -17.8905 21.7838
lfingers 7.12502
lthumb 8.37598 51.5977
rfemur -9.33195 5.62074 23.6466
rtibia 34.9134
rfoot -16.9292 -11.255
rtoes 1.99312
lfemur -12.6211 -3.98444 -22.8191
ltibia 35.0704
lfoot -15.7136 -1.43875
ltoes 2.18875
209
root 0.344506 17.211 23.0955 -2.89039 1.88904 0.954071
lowerback 3.64308 0.202942 -0.421181
upperback -0.418442 0.294028 1.70715
thorax -2.48379 0.164208 1.97418
lowerneck -14.2185 -4.26461 -10.8939
upperneck 23.728 -5.05595 6.91349
head 10.3987 -2.52359 3.62954
rclavicle 9.88954e-015 -2.38542e-015
rhumerus -34.6038 -11.8148 -76.2733
rradius 60.663
rwrist -5.04504
rhand -16.2632 18.579
rfingers 7.12502
rthumb 9.94627 -11.1661
lclavicle 9.88954e-015 -2.38542e-015
lhumerus -39.5798 13.1834 82.8075
lradius 23.7468
lwrist -9.28122
lhand -17.6958 22.7275
lfingers 7.12502
lthumb 8.5639 52.5338
rfemur -9.24831 5.3058 23.4632
rtibia 34.8758
rfoot -17.1007 -11.2799
rtoes 1.70987
lfemur -12.534 -4.02591 -22.9949
ltibia 34.9658
lfoot -15.8424 -1.59629
ltoes 2.10442
210
root 0.348342 17.2105 23.1174 -2.78632 2.22198 1.10016
lowerback 3.50248 0.112591 -0.515573
upperback -0.319197 0.165434 1.61529
thorax -2.29783 0.0989671 1.93976
lowerneck -14.3404 -4.24917 -11.0179
upperneck 23.4077 -5.03998 7.16884
head 10.314 -2.49255 3.73825
rclavicle -1.76918e-014 2.3059e-014
rhumerus -34.5536 -11.656 -76.3112
rradius 59.8518
rwrist -4.48452
rhand -15.823 18.4493
rfingers 7.12502
rthumb 10.3709 -11.275
lclavicle -1.76918e-014 2.3059e-014
lhumerus -39.0326 13.456 82.6378
lradius 24.1347
lwrist -9.21121
lhand -16.3667 24.3097
lfingers 7.12502
lthumb 9.84641 54.0594
rfemur -9.21836 5.10954 23.2807
rtibia 34.8627
rfoot -17.2932 -11.3177
rtoes 2.11535
lfemur -12.5154 -4.20925 -23.1826
ltibia 34.8908
lfoot -15.8971 -1.73774
ltoes 2.39041
211
root 0.346635 17.2098 23.1344 -2.62546 2.36336 1.07149
lowerback 3.47114 0.081261 -0.543733
upperback -0.354793 0.122948 1.62368
thorax -2.31532 0.0784959 1.96659
lowerneck -14.2367 -4.19608 -11.2597
upperneck 22.9653 -4.98225 7.51193
head 10.1434 -2.44608 3.90369
rclavicle -7.55382e-015 2.70347e-014
rhumerus -34.767 -11.2924 -76.3005
rradius 59.115
rwrist -4.16979
rhand -15.74 18.4683
rfingers 7.12502
rthumb 10.451 -11.252
lclavicle -7.55382e-015 2.70347e-014
lhumerus -38.6228 14.0286 82.3634
lradius 24.3061
lwrist -9.23092
lhand -16.3304 23.7307
lfingers 7.12502
lthumb 9.8814 53.4788
rfemur -9.29449 5.22555 23.3586
rtibia 34.7833
rfoot -17.2888 -11.5808
rtoes 2.38709
lfemur -12.6503 -4.18435 -23.1234
ltibia 34.897
lfoot -15.9269 -1.86056
ltoes 2.56933
